<svg xmlns="http://www.w3.org/2000/svg" width="1200" height="800" viewBox="-140.625 -34.43375 1218.75 206.6025"><path d="M868.291 81.783c0-10.012 34.53-13.363 34.53-13.363l-.487-10.013c-5.036-.138-24.692.584-24.692-4.676 0-6.867 30.076-8.54 40.618-8.913l-2.164-16.022c-18.166.05-99.789.269-103.128 22.359-1.804 11.926 21.696 14.743 21.696 14.743l-.007.562s-30.77 5.688-30.77 20.583c0 30.39 106.14 21.88 133.613 14.318 0 0-2.66-13.497-3.872-14.124-1.096-.566-23.376 2.728-41.057 2.255-14.38-.387-24.28-2.68-24.28-7.71M647.147 14.943c0 8.622-9.457 14.72-26.008 14.72-16.26 0-26.023-5.966-26.023-14.72C595.116 5.175 609.43 0 621.127 0c11.366 0 26.02 5.045 26.02 14.943M797.45 86.581c-1.315-.438-10.888 1.715-21.6-1.998-17.142-5.941-19.772-28.929.579-42.061l-19.045-16.126c-33.598 12.948-40.51 13.87-43.655 14.589-1.56-4.568-8.852-12.24-24.318-11.32-8.412.502-20.913 5.224-24.528 13.824-2.437 5.795-.961 12.302 4.688 16.749 8.143 6.409 23.687 4.812 23.687 4.812-4.893 20.505-47.519 34.531-47.519 12.554V39.896h-50.623v43.793c0 21.878 26.849 27.538 53.212 25.798 36.885-2.434 57.632-23.603 65.195-46.454l17.995-4.154s-24.628 32.098 6.102 46.695c17.533 8.328 49.773 1.91 62.73-4.996 0 0-2.15-13.747-2.9-13.997M681.803 46.995c.332-5.471 13.935-6.875 14.761-.545 0 0-15.121 6.453-14.761.545M589.531 90.3c-.463-.487-9.156 1.68-15.455.142-6.953-1.699-7.405-6.903-7.405-13.823l.003-37.025-52.135.011v34.942c0 4.12.347 14.152-14.279 14.152-6.576 0-14.082-.553-14.082-10.032V39.594h-51.84l.045 44.518c0 25.38 42.573 33.141 86.314 16.572 0 0 20.474 16.183 71.67 4.283 0 0-2.236-14.035-2.836-14.667m-170.206 39.916l-.02-91.288-47.442.007s1.607 32.93-.888 39.33c-4.241 13.912-38.425 11.936-38.417-4.284.012-18.856 34.813-15.614 34.813-15.614l-3.484-19.473s-80.462-7.488-84.316 35.521c-.863 29.978 52.54 42.474 92.03 27.719l-.017 35.601z"/><path d="M264.887 86.416c4.772-4.848 4.485-10.744.436-17.166-5.978-9.481-22.488-15.033-26.433-22.558-1.732-3.307-1.666-7.234.909-12.07l-.89-3.971-55.709 6.154c-3.298 7.43.066 13.224.309 13.906C143.266 93.805 78.005 94.195 76.268 79.007c-1.63-14.245 42.99-17.392 42.99-17.392l-.874-14.199S88.33 49.78 87.878 40.53c-.465-9.538 27.65-12.622 43.95-12.81l-4.16-22.9C74.887 4.244 25.552 15.872 21.02 35.81c-1.36 5.981 2.634 16.502 24.405 20.89v.765S-.31 64.685.002 84.529c.276 17.654 39.724 25.494 67.58 25.69 56.445.394 86.202-18.313 86.202-18.313-7.888 21.579 53.914 24.185 96.82 8.698 2.042-.737 18.53 6.283 28.543 10.71 0 0 6.405-15.342 5.548-17.43-.78-1.9-19.808-7.468-19.808-7.468m-55.142 5.737c-5.555 6.844-27.308 6.778-25.782 2.298 1.642-4.82 23.222-3.613 25.782-2.298m-41.86-7.328s13.076-8.28 26.517-20.065c0 0 11.577 6.763 16.875 14.805 0 0-18.458-3.506-43.393 5.26"/></svg>